<svg viewBox="0 0 512 512" xmlns="http://www.w3.org/2000/svg" xmlns:xlink="http://www.w3.org/1999/xlink">
  <defs>
    <filter x="-2.4%" y="-1.2%" width="104.9%" height="104.9%" filterUnits="objectBoundingBox" id="llwpfjpp__b">
      <feOffset dy="5" in="SourceAlpha" result="shadowOffsetOuter1"/>
      <feGaussianBlur stdDeviation="2.5" in="shadowOffsetOuter1" result="shadowBlurOuter1"/>
      <feColorMatrix values="0 0 0 0 0 0 0 0 0 0 0 0 0 0 0 0 0 0 0.3 0" in="shadowBlurOuter1"/>
    </filter>
    <path d="M117.939 0H294.06c41.01 0 55.881 4.27 70.874 12.288 14.992 8.018 26.759 19.785 34.777 34.777C407.73 62.058 412 76.93 412 117.94v176.12c0 41.01-4.27 55.881-12.288 70.874-8.018 14.992-19.785 26.759-34.777 34.777C349.942 407.73 335.07 412 294.06 412H117.94c-41.01 0-55.881-4.27-70.874-12.288-14.992-8.018-26.759-19.785-34.777-34.777C4.27 349.942 0 335.07 0 294.06V117.94c0-41.01 4.27-55.881 12.288-70.874 8.018-14.992 19.785-26.759 34.777-34.777C62.058 4.27 76.93 0 117.94 0Z" id="llwpfjpp__a"/>
  </defs>
  <g transform="translate(50 50)" fill="none" fill-rule="evenodd">
    <mask id="llwpfjpp__c" fill="#fff">
      <use xlink:href="#llwpfjpp__a"/>
    </mask>
    <use fill="#000" filter="url(#llwpfjpp__b)" xlink:href="#llwpfjpp__a"/>
    <use fill="#FFF" xlink:href="#llwpfjpp__a"/>
    <g mask="url(#llwpfjpp__c)">
      <path d="m207.372 274.729 108.21-90.062-11.215 52.688a15 15 0 0 1-5.168 8.483L191.534 334l10.759-50.847a15 15 0 0 1 5.08-8.424Z" fill="#22D3EE"/>
      <path d="M94 319.778 301.608 150.5a15 15 0 0 0 5.162-8.362l11.653-52.287-208.48 170.159a15 15 0 0 0-5.195 8.54L94 319.778Z" fill="#7C3AED"/>
      <path d="M111.238 167.065 218.995 77l-10.768 52.616a15 15 0 0 1-5.192 8.598L95.42 226.334l10.763-50.865a15 15 0 0 1 5.055-8.404Z" fill="#16161D"/>
    </g>
  </g>
</svg>
