<svg viewBox="0 0 1077 256" xmlns="http://www.w3.org/2000/svg" xmlns:xlink="http://www.w3.org/1999/xlink">
  <defs>
    <filter x="-3.4%" y="-2.4%" width="106.8%" height="106.8%" filterUnits="objectBoundingBox" id="llwpfjqd__b">
      <feOffset dy="2.5" in="SourceAlpha" result="shadowOffsetOuter1"/>
      <feGaussianBlur stdDeviation="2.5" in="shadowOffsetOuter1" result="shadowBlurOuter1"/>
      <feColorMatrix values="0 0 0 0 0 0 0 0 0 0 0 0 0 0 0 0 0 0 0.3 0" in="shadowBlurOuter1"/>
    </filter>
    <circle id="llwpfjqd__a" cx="128" cy="128" r="128"/>
  </defs>
  <g fill="none" fill-rule="evenodd">
    <path d="M320.883 230.583h39.574v-80.842h75.189V114.69h-75.19V68.333h76.603V32.717H320.883zm137.377 0h38.16V83.597h-38.16v146.986ZM454.301 48.83c0 12.437 9.893 22.613 22.896 22.613 13.285 0 22.896-9.893 22.896-22.613 0-12.155-9.61-22.331-22.896-22.331-13.003 0-22.896 10.176-22.896 22.33Zm120.417 181.753h20.917v-33.92h-15.829c-7.35 0-11.872-4.24-11.872-13.568v-66.992h31.093V83.597h-31.093V49.959l-38.16 3.958v29.68h-20.635v32.506h20.635v68.971c0 31.941 15.83 45.51 44.944 45.51Zm39.856 0h39.573v-71.797h27.136c44.379 0 71.515-21.765 71.515-63.6 0-41.552-27.136-62.47-71.515-62.47h-66.709v197.867Zm39.573-107.413V68.05h24.875c21.483 0 33.637 8.763 33.637 27.419 0 18.938-12.154 27.701-33.637 27.701h-24.875Zm112.784 107.413h38.16V24.237h-38.16zm133.419 3.675c45.51 0 78.299-34.485 78.299-76.885 0-42.4-32.79-77.168-78.299-77.168-45.51 0-78.299 34.768-78.299 77.168 0 42.4 32.79 76.885 78.299 76.885Zm-40.139-76.885c0-22.896 15.83-42.4 40.139-42.4 24.31 0 40.139 19.504 40.139 42.4 0 22.896-15.83 42.117-40.139 42.117-24.31 0-40.139-19.221-40.139-42.117Zm191.083 73.21h20.917v-33.92h-15.829c-7.35 0-11.872-4.24-11.872-13.568v-66.992h31.093V83.597h-31.093V49.959l-38.16 3.958v29.68h-20.635v32.506h20.635v68.971c0 31.941 15.83 45.51 44.944 45.51Z" fill="#000" fill-rule="nonzero"/>
    <mask id="llwpfjqd__c" fill="#fff">
      <use xlink:href="#llwpfjqd__a"/>
    </mask>
    <use fill="#000" filter="url(#llwpfjqd__b)" xlink:href="#llwpfjqd__a"/>
    <use fill="#FFF" xlink:href="#llwpfjqd__a"/>
    <g mask="url(#llwpfjqd__c)">
      <path d="m129.936 175.773 73.916-61.606-7.454 35.07a15 15 0 0 1-5.16 8.48L117.72 218l7.143-33.806a15 15 0 0 1 5.072-8.421Z" fill="#22D3EE"/>
      <path d="M50 208.111 192.922 91.413a15 15 0 0 0 5.155-8.36l7.747-34.812L62.321 165.532a15 15 0 0 0-5.189 8.539L50 208.11Z" fill="#7C3AED"/>
      <path d="m63.181 100.914 73.607-61.61-7.152 34.997a15 15 0 0 1-5.185 8.596l-73.465 60.241 7.147-33.823a15 15 0 0 1 5.048-8.401Z" fill="#16161D"/>
    </g>
  </g>
</svg>
