<svg viewBox="0 0 256 256" xmlns="http://www.w3.org/2000/svg" xmlns:xlink="http://www.w3.org/1999/xlink">
  <defs>
    <filter x="-3.4%" y="-2.4%" width="106.8%" height="106.8%" filterUnits="objectBoundingBox" id="llwpfjq7__b">
      <feOffset dy="2.5" in="SourceAlpha" result="shadowOffsetOuter1"/>
      <feGaussianBlur stdDeviation="2.5" in="shadowOffsetOuter1" result="shadowBlurOuter1"/>
      <feColorMatrix values="0 0 0 0 0 0 0 0 0 0 0 0 0 0 0 0 0 0 0.3 0" in="shadowBlurOuter1"/>
    </filter>
    <circle id="llwpfjq7__a" cx="128" cy="128" r="128"/>
  </defs>
  <g fill="none" fill-rule="evenodd">
    <mask id="llwpfjq7__c" fill="#fff">
      <use xlink:href="#llwpfjq7__a"/>
    </mask>
    <use fill="#000" filter="url(#llwpfjq7__b)" xlink:href="#llwpfjq7__a"/>
    <use fill="#FFF" xlink:href="#llwpfjq7__a"/>
    <g mask="url(#llwpfjq7__c)">
      <path d="m129.936 175.773 73.916-61.606-7.454 35.07a15 15 0 0 1-5.16 8.48L117.72 218l7.143-33.806a15 15 0 0 1 5.072-8.421Z" fill="#22D3EE"/>
      <path d="M50 208.111 192.922 91.413a15 15 0 0 0 5.155-8.36l7.747-34.812L62.321 165.532a15 15 0 0 0-5.189 8.539L50 208.11Z" fill="#7C3AED"/>
      <path d="m63.181 100.914 73.607-61.61-7.152 34.997a15 15 0 0 1-5.185 8.596l-73.465 60.241 7.147-33.823a15 15 0 0 1 5.048-8.401Z" fill="#16161D"/>
    </g>
  </g>
</svg>
