<svg viewBox="0 0 256 256" xmlns="http://www.w3.org/2000/svg">
  <g>
    <path d="m128.372 196.729 108.21-90.062-11.215 52.688a15 15 0 0 1-5.168 8.483L112.534 256l10.759-50.847a15 15 0 0 1 5.08-8.424Z" fill="#FFF"/>
    <path d="M15 241.778 222.608 72.5a15 15 0 0 0 5.162-8.362l11.653-52.287L30.943 182.01a15 15 0 0 0-5.195 8.54L15 241.778Z" fill="#FFF"/>
    <path d="M32.238 89.065 139.995-1l-10.768 52.616a15 15 0 0 1-5.192 8.598L16.42 148.334l10.763-50.865a15 15 0 0 1 5.055-8.404Z" fill="#FFF"/>
  </g>
</svg>
