<svg viewBox="0 0 514 704" xmlns="http://www.w3.org/2000/svg" xmlns:xlink="http://www.w3.org/1999/xlink">
  <defs>
    <filter x="-1.8%" y="-1.3%" width="103.5%" height="103.5%" filterUnits="objectBoundingBox" id="llwpfjqs__b">
      <feOffset dy="2.5" in="SourceAlpha" result="shadowOffsetOuter1"/>
      <feGaussianBlur stdDeviation="2.5" in="shadowOffsetOuter1" result="shadowBlurOuter1"/>
      <feColorMatrix values="0 0 0 0 0 0 0 0 0 0 0 0 0 0 0 0 0 0 0.3 0" in="shadowBlurOuter1"/>
    </filter>
    <circle id="llwpfjqs__a" cx="248" cy="248" r="248"/>
  </defs>
  <g fill="none" fill-rule="evenodd">
    <path d="M.6 701h26.88v-54.912h51.072V622.28H27.48v-31.488h52.032V566.6H.6zm93.312 0h25.92v-99.84h-25.92V701Zm-2.688-123.456c0 8.448 6.72 15.36 15.552 15.36 9.024 0 15.552-6.72 15.552-15.36 0-8.256-6.528-15.168-15.552-15.168-8.832 0-15.552 6.912-15.552 15.168ZM173.016 701h14.208v-23.04h-10.752c-4.992 0-8.064-2.88-8.064-9.216V623.24h21.12v-22.08h-21.12v-22.848L142.488 581v20.16h-14.016v22.08h14.016v46.848c0 21.696 10.752 30.912 30.528 30.912Zm27.072 0h26.88v-48.768H245.4c30.144 0 48.576-14.784 48.576-43.2 0-28.224-18.432-42.432-48.576-42.432h-45.312V701Zm26.88-72.96V590.6h16.896c14.592 0 22.848 5.952 22.848 18.624 0 12.864-8.256 18.816-22.848 18.816h-16.896ZM303.576 701h25.92V560.84h-25.92zm90.624 2.496c30.912 0 53.184-23.424 53.184-52.224 0-28.8-22.272-52.416-53.184-52.416s-53.184 23.616-53.184 52.416c0 28.8 22.272 52.224 53.184 52.224Zm-27.264-52.224c0-15.552 10.752-28.8 27.264-28.8s27.264 13.248 27.264 28.8c0 15.552-10.752 28.608-27.264 28.608s-27.264-13.056-27.264-28.608ZM496.728 701h14.208v-23.04h-10.752c-4.992 0-8.064-2.88-8.064-9.216V623.24h21.12v-22.08h-21.12v-22.848L466.2 581v20.16h-14.016v22.08H466.2v46.848c0 21.696 10.752 30.912 30.528 30.912Z" fill="#000" fill-rule="nonzero"/>
    <g transform="translate(9)">
      <mask id="llwpfjqs__c" fill="#fff">
        <use xlink:href="#llwpfjqs__a"/>
      </mask>
      <use fill="#000" filter="url(#llwpfjqs__b)" xlink:href="#llwpfjqs__a"/>
      <use fill="#FFF" xlink:href="#llwpfjqs__a"/>
      <g mask="url(#llwpfjqs__c)">
        <path d="m248.005 343.682 146.958-122.484-15.467 72.77a15 15 0 0 1-5.16 8.481L228.084 422.375l14.848-70.271a15 15 0 0 1 5.072-8.422Z" fill="#22D3EE"/>
        <path d="m96.875 403.215 280.686-229.184a15 15 0 0 0 5.155-8.36l16.069-72.205L116.9 323.862a15 15 0 0 0-5.189 8.538l-14.837 70.815Z" fill="#7C3AED"/>
        <path d="M118.686 198.64 265.027 76.153 250.17 148.85a15 15 0 0 1-5.185 8.595L98.785 277.33l14.852-70.288a15 15 0 0 1 5.049-8.402Z" fill="#16161D"/>
      </g>
    </g>
  </g>
</svg>
