<svg viewBox="0 0 514 144" xmlns="http://www.w3.org/2000/svg">
  <path d="M.6 141h26.88V86.088h51.072V62.28H27.48V30.792h52.032V6.6H.6zm93.312 0h25.92V41.16h-25.92V141ZM91.224 17.544c0 8.448 6.72 15.36 15.552 15.36 9.024 0 15.552-6.72 15.552-15.36 0-8.256-6.528-15.168-15.552-15.168-8.832 0-15.552 6.912-15.552 15.168ZM173.016 141h14.208v-23.04h-10.752c-4.992 0-8.064-2.88-8.064-9.216V63.24h21.12V41.16h-21.12V18.312L142.488 21v20.16h-14.016v22.08h14.016v46.848c0 21.696 10.752 30.912 30.528 30.912Zm27.072 0h26.88V92.232H245.4c30.144 0 48.576-14.784 48.576-43.2 0-28.224-18.432-42.432-48.576-42.432h-45.312V141Zm26.88-72.96V30.6h16.896c14.592 0 22.848 5.952 22.848 18.624 0 12.864-8.256 18.816-22.848 18.816h-16.896ZM303.576 141h25.92V.84h-25.92zm90.624 2.496c30.912 0 53.184-23.424 53.184-52.224 0-28.8-22.272-52.416-53.184-52.416s-53.184 23.616-53.184 52.416c0 28.8 22.272 52.224 53.184 52.224Zm-27.264-52.224c0-15.552 10.752-28.8 27.264-28.8s27.264 13.248 27.264 28.8c0 15.552-10.752 28.608-27.264 28.608s-27.264-13.056-27.264-28.608ZM496.728 141h14.208v-23.04h-10.752c-4.992 0-8.064-2.88-8.064-9.216V63.24h21.12V41.16h-21.12V18.312L466.2 21v20.16h-14.016v22.08H466.2v46.848c0 21.696 10.752 30.912 30.528 30.912Z"/>
</svg>
